<svg width="480" height="500" xmlns="http://www.w3.org/2000/svg" xmlns:svg="http://www.w3.org/2000/svg" preserveAspectRatio="xMidYMid meet" version="1.0">
 <!-- Created with SVG-edit - https://github.com/SVG-Edit/svgedit-->
 <g class="layer">
  <title>Layer 1</title>
  <path d="m406.29,85.07l0,81l-28.93,0l-28.93,0l0,-77.14l0,-77.14l-32.79,0l-32.79,0l0,231.43l0,231.43l32.79,0l32.79,0l0,-127.29l0,-127.67l28.16,1.16l27.77,1.16l1.16,135.77l0.77,136.16l30.86,0l30.86,0l0,-244.93l0,-244.93l-30.86,0l-30.86,0l0,81z" id="svg_2"/>
  <path d="m9.77,195.77l1.16,157.37l10.41,5.01c16.97,8.1 223.71,-3.09 233.74,-12.73c0.77,-0.39 -0.77,-12.73 -3.47,-27l-4.24,-25.84l-16.2,2.7c-20.06,3.09 -104.91,9.26 -134.23,9.64l-22.37,0l0,-104.14l0,-104.14l69.43,0l69.43,0l0,-28.93l0,-28.93l-102.21,0l-102.21,0l0.77,156.99z" id="svg_1"/>
 </g>
</svg>