<svg width="450" height="480" xmlns="http://www.w3.org/2000/svg" xmlns:svg="http://www.w3.org/2000/svg" preserveAspectRatio="xMidYMid meet" version="1.0">
 <g class="layer">
  <title>Layer 1</title>
  <g id="svg_26">
   <path d="m323.13,175.92l0,171.92l27.57,0l27.57,0l0,-81.09l0,-81.09l34.06,0l34.06,0l0,-22.71l0,-22.71l-34.06,0l-34.06,0l0,-68.12l0,-68.12l-27.57,0l-27.57,0l0,171.92z" id="svg_10"/>
   <path d="m34.44,51.03l0,24.33l88.55,0.65l88.23,0.97l-0.97,22.71c-0.65,12.33 -3.24,37.3 -5.84,54.82c-2.59,17.84 -4.54,34.06 -4.54,36.33c0,3.89 47.03,10.38 50.6,6.81c4.54,-4.22 11.35,-64.87 13.3,-115.15l1.95,-55.79l-115.48,0l-115.8,0l0,24.33z" id="svg_13"/>
   <path d="m96.07,190.52l0,47.03l-47.03,0l-47.03,0l0,24.65l0,24.98l103.15,-1.95c95.69,-1.62 154.4,-6.49 183.92,-14.6c9.08,-2.59 9.73,-3.89 9.08,-18.49c-0.32,-8.43 -1.3,-18.81 -2.27,-22.71c-1.95,-7.14 -2.27,-7.14 -22.38,-2.92c-24.65,5.19 -80.77,11.03 -104.77,11.03l-17.52,0l0,-47.03l0,-47.03l-27.57,0l-27.57,0l0,47.03z" id="svg_17"/>
   <path d="m109.69,395.84c0.65,51.58 1.95,69.09 5.51,72.98c3.89,4.87 17.84,5.51 140.13,5.51l135.91,0l0,-24.33l0,-24.33l-113.53,0l-113.53,0l0,-48.66l0,-48.66l-27.9,0l-27.57,0l0.97,67.47z" id="svg_20"/>
  </g>
 </g>
</svg>