<svg width="390" height="450" xmlns="http://www.w3.org/2000/svg" xmlns:svg="http://www.w3.org/2000/svg" preserveAspectRatio="xMidYMid meet" version="1.0">
 <g class="layer">
  <title>Layer 1</title>
  <g id="svg_22">
   <path d="m108.78,29.22l0,27.22l-48.39,0l-48.39,0l0,21.17l0,21.17l124,0l124,0l0,-21.17l0,-21.17l-49.9,0l-49.9,0l0,-27.22l0,-27.22l-25.71,0l-25.71,0l0,27.22z" id="svg_4"/>
   <path d="m322.91,63.09l-0.91,55.35l-32.36,0.91l-32.66,0.91l0,20.87l0,20.87l32.66,0.91l32.36,0.91l0.91,20.26l0.91,20.57l-33.57,0l-33.27,0l0,22.68l0,22.68l33.27,0l33.27,0l0,43.85l0,43.85l25.71,0l25.71,0l0,-164.83l0,-164.83l-25.71,0l-25.71,0l-0.6,55.04z" id="svg_7"/>
   <path d="m99.71,119.04c-52.32,18.15 -75,75.31 -49,122.79c16.63,30.85 47.79,45.97 91.03,43.85c39.32,-1.81 62.3,-16.03 79.84,-49c5.14,-9.68 6.65,-17.54 6.65,-36.6c-0.3,-21.17 -1.21,-26.31 -9.07,-40.53c-10.59,-19.05 -29.64,-34.48 -51.11,-41.13c-19.05,-5.75 -50.81,-5.44 -68.35,0.6zm56.25,42.04c30.24,14.52 30.85,62.6 1.21,77.42c-14.21,7.26 -35.39,6.96 -47.48,-0.6c-15.73,-9.38 -23.89,-30.24 -19.05,-48.69c3.33,-11.49 15.42,-26.01 25.71,-30.24c9.98,-3.93 28.73,-3.02 39.62,2.12z" id="svg_16"/>
   <path d="m123.9,376.42c0,46.58 0.91,58.07 4.84,63.51l4.54,6.65l125.51,0l125.21,0l0,-22.68l0,-22.68l-104.34,0l-104.34,0l0,-40.83l0,-40.83l-25.71,0l-25.71,0l0,56.86z" id="svg_21"/>
  </g>
 </g>
</svg>