<svg width="470" height="500" xmlns="http://www.w3.org/2000/svg" xmlns:svg="http://www.w3.org/2000/svg" preserveAspectRatio="xMidYMid meet" version="1.0">

  <path d="m83.17,27.63l0,25.62l121.63,0l121.97,0l-2.39,24.6c-3.07,30.07 -7.17,51.25 -16.06,82l-6.83,23.23l-146.57,0l-146.92,0l0,23.92l0,23.92l97.37,0l97.37,0l0,42.71l0,42.71l-61.5,0l-61.5,0l0,25.62l0,25.62l123,0l123,0l0,64.92l0,64.92l27.33,0l27.33,0l0,-90.54l0,-90.54l-59.79,0l-60.13,0l1.02,-42.02l1.02,-41.68l98.4,-1.02l98.06,-0.68l0,-23.92l0,-23.92l-49.88,0c-42.02,0 -49.54,-0.68 -48.17,-4.78c10.25,-25.97 19.13,-81.32 21.87,-132.91l2.05,-43.39l-150.67,0l-151.02,0l0,25.62z" id="svg_logo_1"/>

</svg>