<svg width="390" height="505" xmlns="http://www.w3.org/2000/svg" xmlns:svg="http://www.w3.org/2000/svg" preserveAspectRatio="xMidYMid meet" version="1.0">
 <g class="layer">
  <title>Layer 1</title>
  <g id="svg_22">
   <path d="m323.93,139.64l0,137.64l28.54,0l28.54,0l0,-137.64l0,-137.64l-28.54,0l-28.54,0l0,137.64z" id="svg_6"/>
   <path d="m5,46.99l0,25.18l78.89,0l78.89,0l0,23.5l0,23.5l-78.89,0l-78.89,0l0,68.49c0,58.08 0.67,69.49 5.37,73.86c12.42,12.42 243.06,3.02 265.55,-10.74c2.69,-1.68 2.69,-8.39 -0.34,-24.17c-3.36,-18.46 -5.04,-21.82 -10.41,-21.15c-3.69,0.34 -23.84,3.02 -44.31,6.04c-20.81,3.02 -64.79,5.71 -97.36,6.04l-59.76,0.67l-1.01,-24.51l-1.01,-24.17l77.55,0l77.21,0l0,-73.86l0,-73.86l-105.75,0l-105.75,0l0,25.18z" id="svg_12"/>
   <path d="m102.36,399.49c0,91.65 0,92.32 7.39,97.36c6.38,4.7 25.51,5.37 139.32,5.37l131.94,0l0,-97.36l0,-97.36l-28.54,0l-28.54,0l0,25.18l0,25.18l-82.25,0l-82.25,0l0,-25.18l0,-25.18l-28.54,0l-28.54,0l0,91.99zm221.57,30.55l0,21.82l-82.25,0l-82.25,0l0,-21.82l0,-21.82l82.25,0l82.25,0l0,21.82z" id="svg_19"/>
  </g>
 </g>
</svg>