<svg width="450" height="500" xmlns="http://www.w3.org/2000/svg" xmlns:svg="http://www.w3.org/2000/svg" preserveAspectRatio="xMidYMid meet" version="1.0">
 <g class="layer">
  <title>Layer 1</title>
  <g id="svg_22">
   <path d="m379.29,250.93l0,244.93l30.86,0l30.86,0l0,-244.93l0,-244.93l-30.86,0l-30.86,0l0,244.93z" id="svg_9"/>
   <path d="m9,188.44c0,130.76 0.77,152.74 6.17,160.07c5.79,8.49 6.17,8.49 131.14,8.49l124.97,0l0,-160.07l0,-160.07l-131.14,0l-131.14,0l0,151.59zm195.94,9.26l-1.16,103.37l-63.64,0l-63.64,0l-1.16,-103.37l-0.77,-102.99l65.57,0l65.57,0l-0.77,102.99z" id="svg_14"/>
  </g>
 </g>
</svg>