<svg width="450" height="500" xmlns="http://www.w3.org/2000/svg" xmlns:svg="http://www.w3.org/2000/svg" preserveAspectRatio="xMidYMid meet" version="1.0">
 <g class="layer">
  <title>Layer 1</title>
  <g id="svg_25">
   <path d="m9,231.75l0,22.47l93.11,0l93.11,0l0,19.26l0,19.26l-56.18,0l-56.18,0l0,22.47l0,22.47l112.69,0l112.37,0l-0.96,15.09l-0.96,15.41l-111.41,0.96l-111.73,0.64l0,55.86c0,49.76 0.64,56.18 5.78,60.68c5.46,4.82 20.23,5.46 144.47,5.46l138.69,0l0,-22.47l0,-22.47l-117.83,-0.64l-118.15,-0.96l-0.96,-15.41l-0.96,-15.09l112.37,0l112.69,0l0,-61l0,-61l-54.58,0l-54.58,0l0,-19.26l0,-19.26l93.11,0l93.11,0l0,-22.47l0,-22.47l-213.5,0l-213.5,0l0,22.47z" id="svg_23"/>
   <path d="m195.21,21.46c0,28.89 -18.3,56.18 -53.94,79.94c-20.55,13.48 -58.11,30.82 -78.66,35.64c-4.82,1.28 -9.63,3.53 -10.27,5.14c-0.96,1.28 2.57,11.56 8.03,22.47c11.56,22.47 9.31,22.15 51.37,5.78c34.99,-13.48 72.88,-36.6 93.75,-57.79l18.62,-18.3l9.95,12.52c14.13,17.98 58.75,46.55 98.56,62.61c18.94,7.71 36.6,14.13 39.17,14.13c2.89,0 9.31,-8.67 15.09,-20.55l10.27,-20.55l-24.72,-8.67c-36.92,-12.84 -67.1,-29.86 -87.97,-49.44c-22.47,-20.55 -31.46,-36.6 -33.71,-60.04l-1.93,-17.34l-26.65,0l-26.97,0l0,14.45z" id="svg_24"/>
  </g>
 </g>
</svg>